<?xml version="1.0" encoding="utf-8"?>
<!-- Generator: Adobe Illustrator 25.0.1, SVG Export Plug-In . SVG Version: 6.00 Build 0)  -->
<svg version="1.0" id="katman_1" xmlns="http://www.w3.org/2000/svg" xmlns:xlink="http://www.w3.org/1999/xlink" x="0px" y="0px"
	 viewBox="0 0 328.3 235.9" style="enable-background:new 0 0 328.3 235.9;" xml:space="preserve">
<style type="text/css">
	.st0{fill:#4E4E50;}
	.st1{clip-path:url(#SVGID_2_);}
	.st2{fill:url(#SVGID_3_);}
	.st3{clip-path:url(#SVGID_5_);}
	.st4{fill:url(#SVGID_6_);}
	.st5{clip-path:url(#SVGID_8_);}
	.st6{fill:url(#SVGID_9_);}
	.st7{clip-path:url(#SVGID_11_);}
	.st8{fill:url(#SVGID_12_);}
	.st9{clip-path:url(#SVGID_14_);}
	.st10{fill:url(#SVGID_15_);}
	.st11{clip-path:url(#SVGID_17_);}
	.st12{fill:url(#SVGID_18_);}
	.st13{clip-path:url(#SVGID_20_);}
	.st14{fill:url(#SVGID_21_);}
	.st15{clip-path:url(#SVGID_23_);}
	.st16{fill:url(#SVGID_24_);}
	.st17{fill:none;}
</style>
<g id="Layer_2">
	<g id="Layer_1-2">
		<path class="st0" d="M90.4,182.6c0,0.4,0.2,0.7,0.5,1c0.3,0.3,0.6,0.4,1,0.4h3.3v6.7h-6.4c-0.6,0-1.2-0.2-1.7-0.5
			c-1.3-0.7-2.3-1.9-2.8-3.2c-0.3-0.7-0.4-1.5-0.3-2.3v-21.1c0-0.3-0.1-0.7-0.4-0.9c-0.2-0.3-0.5-0.4-0.8-0.5h-2.1v-5.7H86
			c0.6,0,1.2,0.1,1.8,0.4c0.5,0.3,1,0.6,1.4,1.1c0.3,0.4,0.6,0.9,0.8,1.4c0.2,0.5,0.3,0.9,0.3,1.4L90.4,182.6z M119.1,183.3
			c-0.7,2.6-2.3,4.9-4.6,6.4c-1,0.6-2.1,1.1-3.2,1.4c-1.1,0.2-2.2,0.4-3.3,0.4c-1.7,0-3.3-0.3-4.9-0.8c-1.5-0.4-2.9-1.2-4-2.3
			c-1.2-1.2-2.1-2.7-2.7-4.3c-0.8-2.8-1.1-5.6-0.8-8.5c0.1-0.9,0.3-1.8,0.5-2.7c0.3-1,0.8-2,1.3-2.9c0.5-1,1.3-1.9,2.1-2.6
			c1-0.8,2.1-1.5,3.3-1.9c1.5-0.5,3.1-0.8,4.7-0.7c1.3,0,2.7,0.2,3.9,0.5c1.4,0.4,2.8,1.1,3.9,2.1c1.3,1.2,2.3,2.6,2.9,4.3
			c0.8,2.2,1.2,4.6,1.1,7v1.1h-17.4c0,0.6,0.1,1.2,0.2,1.7c0.1,0.8,0.4,1.5,0.8,2.1c0.4,0.7,1,1.3,1.8,1.8c1,0.5,2.1,0.7,3.2,0.7
			c0.9,0,1.8-0.2,2.6-0.7c0.8-0.4,1.4-1.2,1.6-2.1L119.1,183.3z M112.6,175.5c-0.1-0.9-0.3-1.7-0.7-2.5c-0.3-0.6-0.7-1.2-1.2-1.6
			c-0.5-0.4-1-0.7-1.6-0.9c-0.6-0.2-1.2-0.3-1.7-0.3c-1.4-0.1-2.7,0.4-3.6,1.4c-0.9,1.1-1.5,2.5-1.6,3.9L112.6,175.5z M122.8,172.5
			c0-0.4-0.1-0.7-0.4-1c-0.2-0.3-0.5-0.4-0.9-0.5h-1.5v-5.7h6.2c0.4,0,0.8,0.1,1.1,0.3c0.4,0.2,0.7,0.4,1,0.8c0.3,0.3,0.5,0.6,0.7,1
			c0.2,0.4,0.3,0.7,0.3,1.1v0.9c0.3-0.5,0.5-0.9,0.9-1.4c0.4-0.6,0.9-1.1,1.5-1.6c1.5-1.1,3.4-1.7,5.3-1.6c1.2,0,2.4,0.2,3.5,0.6
			c1,0.3,2,0.9,2.8,1.6c0.8,0.7,1.4,1.6,1.9,2.6c0.5,1.2,0.7,2.4,0.7,3.7v10.4c0,0.3,0.2,0.7,0.4,0.9c0.2,0.3,0.5,0.5,0.9,0.5h1.6
			v5.6h-5.4c-0.5,0-1.1-0.2-1.6-0.5c-0.5-0.3-0.9-0.7-1.3-1.1c-0.4-0.5-0.7-1-0.9-1.6c-0.2-0.5-0.4-1.1-0.4-1.7v-12
			c0-0.6-0.2-1.1-0.5-1.6c-0.3-0.6-0.7-1.1-1.3-1.4c-0.7-0.4-1.5-0.6-2.3-0.5c-1.4,0-2.8,0.5-3.8,1.5c-1,1.2-1.6,2.7-1.5,4.3v9.8
			c0,0.6-0.1,1.1-0.4,1.6c-0.2,0.5-0.6,1.1-0.9,1.5c-0.4,0.5-0.8,0.8-1.4,1.1c-0.5,0.3-1,0.4-1.5,0.4h-5.3V185h1.6
			c0.3,0,0.7-0.2,0.9-0.4c0.2-0.2,0.4-0.6,0.4-0.9L122.8,172.5z"/>
		<path class="st0" d="M164.9,174.1v-1.7c0-0.7-0.4-1.5-1-1.9c-1-0.6-2.2-0.9-3.3-0.8c-0.7,0-1.4,0.1-2.1,0.2
			c-0.4,0.1-0.8,0.3-1.2,0.6c-0.3,0.2-0.5,0.5-0.5,0.8c0,0.3,0,0.6,0,0.9c0,0.7,0.5,1.3,1.1,1.5c0.9,0.4,1.9,0.7,2.9,0.9l3.8,0.8
			c1.3,0.2,2.6,0.7,3.8,1.2c1.1,0.5,2.1,1.2,2.9,2.1c0.8,1.1,1.2,2.4,1.2,3.7c0.1,1.6-0.3,3.1-1.2,4.5c-0.7,1.1-1.7,2-2.9,2.6
			c-1.1,0.6-2.4,1-3.6,1.3c-1.1,0.2-2.2,0.3-3.4,0.3c-1.4,0-2.7-0.1-4.1-0.3c-1.3-0.2-2.6-0.6-3.8-1.1c-1.1-0.5-2.1-1.2-2.9-2.1
			c-0.8-0.9-1.2-2.1-1.1-3.3v-2.3h7.1v2.4c0,0.7,0.5,1.1,1.4,1.4c1.2,0.3,2.4,0.4,3.6,0.4c0.7,0,1.4-0.1,2.1-0.3
			c0.5-0.1,0.9-0.4,1.3-0.7c0.3-0.2,0.5-0.5,0.6-0.8c0.1-0.3,0.2-0.5,0.2-0.8c0-0.7-0.5-1.4-1.2-1.6c-0.9-0.4-1.9-0.7-2.9-0.9
			l-3.8-0.8c-1.3-0.3-2.5-0.7-3.7-1.2c-1.1-0.5-2.2-1.2-3-2.1c-0.9-1.1-1.4-2.5-1.3-3.9c0-1,0.2-2,0.5-2.9c0.3-1,0.9-1.9,1.7-2.7
			c0.9-0.9,2-1.6,3.2-2c1.6-0.6,3.2-0.9,4.9-0.8c1.3,0,2.5,0.1,3.8,0.2c1.3,0.2,2.5,0.5,3.6,1.1c1.1,0.5,2,1.3,2.8,2.3
			c0.8,1.2,1.1,2.5,1.1,3.9v1.8L164.9,174.1z M190.3,175.3l5.8,9.8h2.9v5.8h-4.3c-0.6,0-1.2-0.1-1.8-0.4c-0.6-0.2-1.1-0.5-1.5-0.9
			c-0.4-0.4-0.8-0.9-1.2-1.4c-0.4-0.5-0.7-1-1-1.5l-3.9-6.7l-2.7,2.9v3.5c0,0.5-0.2,1.1-0.4,1.5c-0.3,0.5-0.6,1-1,1.4
			c-0.4,0.4-0.8,0.8-1.3,1.1c-0.5,0.3-1,0.4-1.5,0.4h-5.2V185h1.6c0.3,0,0.7-0.1,0.9-0.4c0.2-0.2,0.4-0.5,0.4-0.9v-20.3
			c0-0.3-0.2-0.6-0.4-0.8c-0.2-0.2-0.5-0.4-0.8-0.4h-1.6v-5.7h4.8c0.6,0,1.2,0.2,1.7,0.4c0.5,0.3,1,0.7,1.5,1.1
			c0.4,0.4,0.8,1,1.1,1.5c0.3,0.5,0.4,1.1,0.4,1.7v13.7l4.7-5.5l1.2-1.4c0.4-0.5,0.8-0.9,1.2-1.3c0.4-0.4,0.9-0.7,1.4-1
			c0.5-0.3,1.1-0.4,1.7-0.4h4.3v5.7h-2.9L190.3,175.3z M225,183.8c0,0.3,0.1,0.6,0.4,0.8c0.2,0.3,0.5,0.4,0.8,0.4h1.7v5.7h-5.7
			c-0.4,0-0.7-0.1-1.1-0.3c-0.4-0.2-0.8-0.4-1.1-0.7c-0.3-0.3-0.6-0.6-0.8-1c-0.2-0.4-0.3-0.8-0.3-1.3v-0.7
			c-0.8,1.4-1.9,2.6-3.3,3.3c-1.4,0.8-3,1.2-4.7,1.2c-1.6,0-3.2-0.3-4.8-0.8c-1.4-0.5-2.8-1.3-3.8-2.4c-1.1-1.2-2-2.6-2.5-4.1
			c-0.7-1.9-1-3.9-0.9-5.9c0-2,0.3-4,1.1-5.9c1.3-3.1,3.8-5.5,7-6.6c1.6-0.6,3.2-0.8,4.9-0.8c0.7,0,1.3,0.1,2,0.2
			c0.7,0.2,1.4,0.4,2,0.7c0.6,0.3,1.2,0.6,1.8,1c0.5,0.4,1,0.8,1.3,1.3v-2.3h6.1L225,183.8z M218,178c0-0.9-0.1-1.7-0.3-2.5
			c-0.1-0.9-0.4-1.7-0.9-2.5c-0.4-0.8-1.1-1.4-1.9-1.9c-2-1-4.3-1-6.2,0c-0.8,0.5-1.4,1.1-1.8,1.9c-0.4,0.8-0.7,1.6-0.9,2.5
			c-0.2,0.8-0.2,1.7-0.3,2.5c0,0.9,0.1,1.7,0.3,2.6c0.1,0.9,0.4,1.7,0.9,2.5c0.4,0.8,1.1,1.4,1.8,1.9c2,1,4.3,1,6.2,0
			c0.8-0.5,1.4-1.1,1.9-1.9c0.4-0.8,0.7-1.6,0.9-2.5C218,179.8,218,178.9,218,178 M230.6,172.4c0-0.3-0.1-0.6-0.4-0.9
			c-0.2-0.2-0.5-0.4-0.9-0.4h-1.6v-5.7h5.1c0.5,0,1,0.1,1.4,0.3c0.5,0.2,0.9,0.5,1.3,0.8c0.4,0.3,0.7,0.7,1,1.1
			c0.3,0.4,0.4,0.8,0.4,1.3v0.9l1.1-1.9c0.4-0.6,0.8-1.1,1.4-1.6c0.5-0.5,1.2-0.9,1.9-1.2c0.8-0.3,1.7-0.4,2.6-0.4h1.3v6.9
			c-0.3,0-0.6,0-0.9,0h-1c-1.1-0.1-2.1,0.1-3.1,0.5c-0.7,0.3-1.4,0.8-1.9,1.4c-0.4,0.6-0.8,1.2-0.9,1.9c-0.2,0.7-0.3,1.4-0.2,2.1
			v13.1h-6.6L230.6,172.4z M255.7,165.4h4.1v4.8h-4.1v12.4c0.1,0.7,0.5,1.2,1.1,1.5c0.5,0.2,1,0.3,1.6,0.3h1.3v6.7h-4.3
			c-1.8,0-3.5-0.7-4.6-2.1c-1.3-1.7-1.9-3.9-1.8-6.1v-12.6h-3.6v-4.8h3.5v-8.8h6.7V165.4z"/>
		<g>
			<defs>
				<path id="SVGID_1_" d="M253.9,101.1h7.6V86.6l-15.8-6.4c4.4,6.2,7.2,13.3,8.1,20.8"/>
			</defs>
			<clipPath id="SVGID_2_">
				<use xlink:href="#SVGID_1_"  style="overflow:visible;"/>
			</clipPath>
			<g class="st1">
				
					<linearGradient id="SVGID_3_" gradientUnits="userSpaceOnUse" x1="-566.7411" y1="-2406.5439" x2="-566.4512" y2="-2406.5439" gradientTransform="matrix(71.97 -33.55 33.49 71.83 121638.2969 153938.0156)">
					<stop  offset="0" style="stop-color:#A59E34"/>
					<stop  offset="0.3" style="stop-color:#A59E34"/>
					<stop  offset="0.41" style="stop-color:#B7BC4C"/>
					<stop  offset="0.65" style="stop-color:#C8DC62"/>
				</linearGradient>
				<path class="st2" d="M237.8,84l20.9-9.7l10.8,23.1l-20.9,9.7L237.8,84z"/>
			</g>
		</g>
		<g>
			<defs>
				<path id="SVGID_4_" d="M209.3,133.1c-14.6-1.2-26.6-12.1-26.6-27c0.1-14.8,11.6-27,26.4-28c17-1,27,13.2,27,28
					c0,14-4.8,27.1-23.1,27.1c-1.2,0.1-2.4,0.1-3.5,0 M104.5,105.9c0-15.4,10.8-29.5,26.7-28.3c14.9,1.1,29.6,14.4,28.1,29.8
					c-0.9,14.9-13.2,26.7-28.2,26.8C116.2,134.1,104.5,122.2,104.5,105.9 M96.3,80.2l-6.4,2.7l10.1,51.3c7.9,7.1,19.3,11.6,35,9.4
					c13.7-1.9,26.4-8.3,36-18.2c9.7,9.9,22.4,16.2,36.1,18.2c5.2,0.8,10.6,0.8,15.8,0l1.5-0.3c9.8-2.1,18.4-8,24-16.3
					c4.2-6.1,5.8-15.5,5.3-25.9c-0.2-5.3-0.7-13.7-5.4-20.1c-2.5-3.4-5.8-6.1-9.6-7.9c-5.9-2.7-12.3-4.1-18.8-4.2H122
					C119.8,68.9,105.1,69.3,96.3,80.2"/>
			</defs>
			<clipPath id="SVGID_5_">
				<use xlink:href="#SVGID_4_"  style="overflow:visible;"/>
			</clipPath>
			<g class="st3">
				
					<linearGradient id="SVGID_6_" gradientUnits="userSpaceOnUse" x1="-581.0356" y1="-2388.668" x2="-580.7456" y2="-2388.668" gradientTransform="matrix(66.38 339.31 -580.36 113.55 -1347555.875 468441.7812)">
					<stop  offset="0" style="stop-color:#C1CE32"/>
					<stop  offset="0.32" style="stop-color:#C3D02F"/>
					<stop  offset="0.44" style="stop-color:#C9D42E"/>
					<stop  offset="0.53" style="stop-color:#D7E02E"/>
					<stop  offset="0.54" style="stop-color:#D7E02F"/>
					<stop  offset="0.61" style="stop-color:#D3DA2B"/>
					<stop  offset="0.71" style="stop-color:#C5C831"/>
					<stop  offset="0.83" style="stop-color:#ADAA35"/>
					<stop  offset="0.87" style="stop-color:#A59E34"/>
				</linearGradient>
				<path class="st4" d="M75.4,71.7l172.8-33.8l20.6,105.2L96,176.9L75.4,71.7z"/>
			</g>
		</g>
		<g>
			<defs>
				<path id="SVGID_7_" d="M159.4,107.3c-1.5,15.8-13.2,26.7-28.2,26.7c-2.4,0-4.9-0.3-7.2-1c-3.2,0.8-5.3,1.8-5.7,3.2
					c-0.6,2.4,5.3,6.1,10.5,7.9c2.1,0,4.1-0.2,6.2-0.5c13.3-1.9,25.7-8,35.3-17.4c-5-5.7-8.7-12.5-10.9-19.7L159.4,107.3"/>
			</defs>
			<clipPath id="SVGID_8_">
				<use xlink:href="#SVGID_7_"  style="overflow:visible;"/>
			</clipPath>
			<g class="st5">
				
					<linearGradient id="SVGID_9_" gradientUnits="userSpaceOnUse" x1="-134.9364" y1="669.0474" x2="-103.4964" y2="669.0374" gradientTransform="matrix(0.87 -0.5 0.5 0.87 -159.2971 -479.5832)">
					<stop  offset="0" style="stop-color:#E3EBA3"/>
					<stop  offset="1.000000e-02" style="stop-color:#E0E999"/>
					<stop  offset="4.000000e-02" style="stop-color:#DAE584"/>
					<stop  offset="7.000000e-02" style="stop-color:#D6E375"/>
					<stop  offset="0.1" style="stop-color:#D1E068"/>
					<stop  offset="0.16" style="stop-color:#D1DF62"/>
					<stop  offset="0.3" style="stop-color:#D0DF5F"/>
					<stop  offset="0.41" style="stop-color:#CEDD5F"/>
					<stop  offset="0.47" style="stop-color:#C9D558"/>
					<stop  offset="0.51" style="stop-color:#C0C74D"/>
					<stop  offset="0.56" style="stop-color:#B2B443"/>
					<stop  offset="0.59" style="stop-color:#A49E35"/>
					<stop  offset="0.59" style="stop-color:#A49D35"/>
					<stop  offset="1" style="stop-color:#4F5224"/>
				</linearGradient>
				<path class="st6" d="M97,108.6l60.2-34.8l33.9,58.5l-60.2,34.8L97,108.6z"/>
			</g>
		</g>
		<g>
			<defs>
				<path id="SVGID_10_" d="M80.6,86.6v14.6h7.6c0.9-7.6,3.7-14.8,8.1-21L80.6,86.6z"/>
			</defs>
			<clipPath id="SVGID_11_">
				<use xlink:href="#SVGID_10_"  style="overflow:visible;"/>
			</clipPath>
			<g class="st7">
				
					<linearGradient id="SVGID_12_" gradientUnits="userSpaceOnUse" x1="90.99" y1="504.4" x2="106.5" y2="504.4" gradientTransform="matrix(1 0 0 1 0 -413.72)">
					<stop  offset="0" style="stop-color:#6DAC44"/>
					<stop  offset="2.000000e-02" style="stop-color:#6DAC44"/>
					<stop  offset="0.23" style="stop-color:#5DAB46"/>
					<stop  offset="0.33" style="stop-color:#49A547"/>
					<stop  offset="0.78" style="stop-color:#399043"/>
					<stop  offset="1" style="stop-color:#2D793C"/>
				</linearGradient>
				<path class="st8" d="M80.6,80.3h15.7v20.8H80.6V80.3z"/>
			</g>
		</g>
		<g>
			<defs>
				<path id="SVGID_13_" d="M167.6,85.7c4.9,7.4,18,23.4,18,23.4s-3.2-9,8.9-21.8c7.3-7.5,18.4-9.9,28.2-6.1
					c-4.4-4.2-14.3-6.4-24.5-6.4C185.4,74.8,171.5,78.3,167.6,85.7"/>
			</defs>
			<clipPath id="SVGID_14_">
				<use xlink:href="#SVGID_13_"  style="overflow:visible;"/>
			</clipPath>
			<g class="st9">
				
					<linearGradient id="SVGID_15_" gradientUnits="userSpaceOnUse" x1="-415.1321" y1="653.1324" x2="-442.7521" y2="653.1324" gradientTransform="matrix(7.000000e-02 -1 1 7.000000e-02 -429.7331 -357.6302)">
					<stop  offset="0" style="stop-color:#CFB831"/>
					<stop  offset="9.000000e-02" style="stop-color:#D0C12F"/>
					<stop  offset="0.32" style="stop-color:#D6D82A"/>
					<stop  offset="0.47" style="stop-color:#D7E02F"/>
					<stop  offset="0.56" style="stop-color:#D4DB2A"/>
					<stop  offset="0.66" style="stop-color:#C5CC2E"/>
					<stop  offset="0.77" style="stop-color:#B2B435"/>
					<stop  offset="0.9" style="stop-color:#949135"/>
					<stop  offset="1" style="stop-color:#766D2C"/>
				</linearGradient>
				<path class="st10" d="M165.2,108.8l2.7-38.3l57.2,4l-2.7,38.3L165.2,108.8z"/>
			</g>
		</g>
		<g>
			<defs>
				<path id="SVGID_16_" d="M120,69c-7.3,0.5-21.2,3.2-26,9.6c-4.1,6.6-6.2,14.3-6,22.1c-0.3,10.3,1.5,19.9,5.8,26
					c7.5,10.9,20.9,19.6,41.4,16.7c9.8-1.5,19.1-5.1,27.2-10.8c-10,5.6-35.3,4.2-46.7-3.9c-10-6.9-16.2-32.1-2.6-44.5
					c18.7-16.8,47.9-6.4,47.9-6.4c-9.3-6.3-20.4-9.5-31.6-9.3h-9.5"/>
			</defs>
			<clipPath id="SVGID_17_">
				<use xlink:href="#SVGID_16_"  style="overflow:visible;"/>
			</clipPath>
			<g class="st11">
				
					<linearGradient id="SVGID_18_" gradientUnits="userSpaceOnUse" x1="-577.46" y1="-2393.0876" x2="-577.17" y2="-2393.0876" gradientTransform="matrix(313.35 139.53 -132.57 297.71 -136235.4531 793101.375)">
					<stop  offset="0" style="stop-color:#86B340"/>
					<stop  offset="9.000000e-02" style="stop-color:#79B042"/>
					<stop  offset="0.13" style="stop-color:#6DAC44"/>
					<stop  offset="0.37" style="stop-color:#5DAB46"/>
					<stop  offset="0.48" style="stop-color:#49A547"/>
					<stop  offset="0.83" style="stop-color:#399043"/>
					<stop  offset="1" style="stop-color:#2D793C"/>
				</linearGradient>
				<path class="st12" d="M58.3,133.5L100,40l91.6,40.8l-41.7,93.6L58.3,133.5z"/>
			</g>
		</g>
		<g>
			<defs>
				<path id="SVGID_19_" d="M119.2,80.2c0,0,19.7-6.2,31.5,8.5s7.1,24.5,20.2,37.6c11.2,11.1,29.2,20.7,48.2,19.3
					c13.7-1,25.8-9.3,31.6-21.8c-6.8,4.3-14.5,7.2-22.5,8.3c-6.6,1.1-13.3,0.3-19.6-2.2c-20.8-7.9-26-30.8-37.8-44.8
					c-6.9-7.9-16.9-12.3-27.4-12c-8.5,0.1-16.9,2.4-24.2,6.7"/>
			</defs>
			<clipPath id="SVGID_20_">
				<use xlink:href="#SVGID_19_"  style="overflow:visible;"/>
			</clipPath>
			<g class="st13">
				
					<linearGradient id="SVGID_21_" gradientUnits="userSpaceOnUse" x1="128.79" y1="523.9" x2="257.82" y2="523.9" gradientTransform="matrix(1 0 0 1 0 -413.72)">
					<stop  offset="0" style="stop-color:#41B1A6"/>
					<stop  offset="0.41" style="stop-color:#41B1A6"/>
					<stop  offset="0.57" style="stop-color:#137082"/>
					<stop  offset="0.93" style="stop-color:#033855"/>
					<stop  offset="1" style="stop-color:#012D46"/>
				</linearGradient>
				<path class="st14" d="M119.2,73.4h131.1V147H119.2V73.4z"/>
			</g>
		</g>
		<g>
			<defs>
				<path id="SVGID_22_" d="M118.6,80.4c0,0,19.3-5.7,27.7,11.2c7.3,14.8,8.5,25.3,21.1,39.5c11.2,12.8,32.7,16.2,51.6,14.7
					c-27.1-0.9-40-15.3-53.3-46.3C158.7,83.2,145.4,77,133.6,77c-5.2,0-10.3,1.2-14.9,3.7"/>
			</defs>
			<clipPath id="SVGID_23_">
				<use xlink:href="#SVGID_22_"  style="overflow:visible;"/>
			</clipPath>
			<g class="st15">
				
					<linearGradient id="SVGID_24_" gradientUnits="userSpaceOnUse" x1="134.86" y1="524.685" x2="233.49" y2="524.685" gradientTransform="matrix(1 0 0 1 0 -413.72)">
					<stop  offset="0" style="stop-color:#BBE3DC"/>
					<stop  offset="0.14" style="stop-color:#92D4CE"/>
					<stop  offset="0.36" style="stop-color:#70C9C1"/>
					<stop  offset="0.61" style="stop-color:#4EAFA8"/>
					<stop  offset="1" style="stop-color:#369D93"/>
				</linearGradient>
				<path class="st16" d="M118.6,74.7h100.2v72.6H118.6V74.7z"/>
			</g>
		</g>
		<rect x="72" y="62" class="st17" width="198" height="136"/>
	</g>
</g>
</svg>
